<svg width="61" height="59" viewBox="0 0 61 59" fill="none" xmlns="http://www.w3.org/2000/svg">
<path d="M60.5 29.5C60.5 45.5007 47.0844 58.5 30.5 58.5C13.9156 58.5 0.5 45.5007 0.5 29.5C0.5 13.4993 13.9156 0.5 30.5 0.5C47.0844 0.5 60.5 13.4993 60.5 29.5Z" stroke="#F4FCF4"/>
<path d="M31.3536 5.64645C31.1583 5.45119 30.8417 5.45119 30.6464 5.64645L27.4645 8.82843C27.2692 9.02369 27.2692 9.34027 27.4645 9.53553C27.6597 9.7308 27.9763 9.7308 28.1716 9.53553L31 6.70711L33.8284 9.53553C34.0237 9.7308 34.3403 9.7308 34.5355 9.53553C34.7308 9.34027 34.7308 9.02369 34.5355 8.82843L31.3536 5.64645ZM31.5 29V6H30.5V29H31.5Z" fill="white"/>
<path d="M52.3536 29.3536C52.5488 29.1583 52.5488 28.8417 52.3536 28.6464L49.1716 25.4645C48.9763 25.2692 48.6597 25.2692 48.4645 25.4645C48.2692 25.6597 48.2692 25.9763 48.4645 26.1716L51.2929 29L48.4645 31.8284C48.2692 32.0237 48.2692 32.3403 48.4645 32.5355C48.6597 32.7308 48.9763 32.7308 49.1716 32.5355L52.3536 29.3536ZM31 29.5H52V28.5H31V29.5Z" fill="white"/>
</svg>
